 0
SECTION
 2
HEADER
 9
$PDMODE
 70
3
 9
$PDSIZE
 40
-0.2500000
 0
ENDSEC
 0
SECTION
 2
TABLES
 0
TABLE
 2
LAYER
 70
1
 0
LAYER
 2
0
 70
64
 62
211
 6
CONTINUOUS
 0
ENDTAB
 0
ENDSEC
 0
SECTION
 2
BLOCKS
 0
ENDSEC
 0
SECTION
 2
ENTITIES
 0
TEXT
 8
0
 40
1.0
 41
1.0
 1
9698
 72
0
 73
0
 10
586170.5693306685
 20
8545577.5870791413
 30
0.0
 11
586170.5693306685
 21
8545577.5870791413
 31
0.0
 50
0.0
 210
0.0
 220
0.0
 230
1.0
 0
POLYLINE
 8
0
 70
9
 66
1
 10
0.0
 20
0.0
 30
0.0
 0
VERTEX
 8
0
 10
585511.295367107
 20
8544232.2636717353
 30
0.0
 70
32
 0
VERTEX
 8
0
 10
586737.6181433235
 20
8546964.9252508655
 30
0.0
 70
32
 0
VERTEX
 8
0
 10
586829.8432942301
 20
8546926.2545569055
 30
0.0
 70
32
 0
VERTEX
 8
0
 10
585683.3769440647
 20
8544190.2489074152
 30
0.0
 70
32
 0
SEQEND
 0
TEXT
 8
0
 40
1.0
 41
1.0
 1
9669
 72
0
 73
0
 10
586397.498548502
 20
8544917.6422158834
 30
0.0
 11
586397.498548502
 21
8544917.6422158834
 31
0.0
 50
0.0
 210
0.0
 220
0.0
 230
1.0
 0
POLYLINE
 8
0
 70
9
 66
1
 10
0.0
 20
0.0
 30
0.0
 0
VERTEX
 8
0
 10
586394.1105226297
 20
8544596.4452638179
 30
0.0
 70
32
 0
VERTEX
 8
0
 10
586383.1891249118
 20
8544467.522126602
 30
0.0
 70
32
 0
VERTEX
 8
0
 10
586378.0900700995
 20
8544465.8793076668
 30
0.0
 70
32
 0
VERTEX
 8
0
 10
586370.9195568945
 20
8544460.3721065857
 30
0.0
 70
32
 0
VERTEX
 8
0
 10
586363.2917062239
 20
8544447.3456608243
 30
0.0
 70
32
 0
VERTEX
 8
0
 10
586360.7856842506
 20
8544443.1508604493
 30
0.0
 70
32
 0
VERTEX
 8
0
 10
586212.6503689028
 20
8544449.3708660621
 30
0.0
 70
32
 0
VERTEX
 8
0
 10
586028.7200938046
 20
8544446.1915917099
 30
0.0
 70
32
 0
VERTEX
 8
0
 10
585806.399941775
 20
8544435.5006641485
 30
0.0
 70
32
 0
VERTEX
 8
0
 10
586007.3405311006
 20
8544918.0714125521
 30
0.0
 70
32
 0
VERTEX
 8
0
 10
586072.1987990174
 20
8545070.0500272904
 30
0.0
 70
32
 0
VERTEX
 8
0
 10
586083.2627385184
 20
8545072.8906627335
 30
0.0
 70
32
 0
VERTEX
 8
0
 10
586131.8017217215
 20
8545067.760487115
 30
0.0
 70
32
 0
VERTEX
 8
0
 10
586440.9157523413
 20
8545036.1467402056
 30
0.0
 70
32
 0
VERTEX
 8
0
 10
586599.0211230877
 20
8545028.5668517016
 30
0.0
 70
32
 0
VERTEX
 8
0
 10
586570.8291135773
 20
8544922.1500801723
 30
0.0
 70
32
 0
VERTEX
 8
0
 10
586172.5591797383
 20
8544863.7990301214
 30
0.0
 70
32
 0
VERTEX
 8
0
 10
586174.9257192171
 20
8544858.1510365549
 30
0.0
 70
32
 0
VERTEX
 8
0
 10
586162.8060960182
 20
8544795.5906801727
 30
0.0
 70
32
 0
VERTEX
 8
0
 10
586119.0276004118
 20
8544660.6884257216
 30
0.0
 70
32
 0
VERTEX
 8
0
 10
586176.8938103619
 20
8544657.8512252085
 30
0.0
 70
32
 0
VERTEX
 8
0
 10
586255.0311623118
 20
8544656.2769584134
 30
0.0
 70
32
 0
VERTEX
 8
0
 10
586328.8090075143
 20
8544681.2598833553
 30
0.0
 70
32
 0
VERTEX
 8
0
 10
586337.8589534141
 20
8544664.1990757119
 30
0.0
 70
32
 0
VERTEX
 8
0
 10
586369.1660222939
 20
8544625.2798820008
 30
0.0
 70
32
 0
VERTEX
 8
0
 10
586388.0633653113
 20
8544603.4321252853
 30
0.0
 70
32
 0
SEQEND
 0
TEXT
 8
0
 40
1.0
 41
1.0
 1
55251
 72
0
 73
0
 10
586051.1147779049
 20
8544277.3378415313
 30
0.0
 11
586051.1147779049
 21
8544277.3378415313
 31
0.0
 50
0.0
 210
0.0
 220
0.0
 230
1.0
 0
POLYLINE
 8
0
 70
9
 66
1
 10
0.0
 20
0.0
 30
0.0
 0
VERTEX
 8
0
 10
586316.8702970207
 20
8544436.3222499378
 30
0.0
 70
32
 0
VERTEX
 8
0
 10
586196.7765756322
 20
8544056.4650068246
 30
0.0
 70
32
 0
VERTEX
 8
0
 10
585926.8455702745
 20
8544137.5012107939
 30
0.0
 70
32
 0
VERTEX
 8
0
 10
585721.6199143194
 20
8544185.5941263083
 30
0.0
 70
32
 0
VERTEX
 8
0
 10
585716.9718593912
 20
8544189.4796841014
 30
0.0
 70
32
 0
VERTEX
 8
0
 10
585715.0353260925
 20
8544194.020303363
 30
0.0
 70
32
 0
VERTEX
 8
0
 10
585715.4837919284
 20
8544198.7746185418
 30
0.0
 70
32
 0
VERTEX
 8
0
 10
585841.2788501546
 20
8544498.2106762379
 30
0.0
 70
32
 0
VERTEX
 8
0
 10
586387.1942297175
 20
8544465.9610572644
 30
0.0
 70
32
 0
VERTEX
 8
0
 10
586380.023714506
 20
8544460.4538584705
 30
0.0
 70
32
 0
VERTEX
 8
0
 10
586369.8898358767
 20
8544443.2326153815
 30
0.0
 70
32
 0
SEQEND
 0
TEXT
 8
0
 40
1.0
 41
1.0
 1
124321
 72
0
 73
0
 10
586857.5211933383
 20
8546776.089999266
 30
0.0
 11
586857.5211933383
 21
8546776.089999266
 31
0.0
 50
0.0
 210
0.0
 220
0.0
 230
1.0
 0
POLYLINE
 8
0
 70
9
 66
1
 10
0.0
 20
0.0
 30
0.0
 0
VERTEX
 8
0
 10
586844.8465746152
 20
8546974.6489186715
 30
0.0
 70
32
 0
VERTEX
 8
0
 10
586968.7992066355
 20
8546926.3653738033
 30
0.0
 70
32
 0
VERTEX
 8
0
 10
586866.7786539969
 20
8546577.5310798604
 30
0.0
 70
32
 0
VERTEX
 8
0
 10
586746.2431800411
 20
8546609.2136534434
 30
0.0
 70
32
 0
VERTEX
 8
0
 10
586779.2302862688
 20
8546689.0714259222
 30
0.0
 70
32
 0
SEQEND
 0
TEXT
 8
0
 40
1.0
 41
1.0
 1
9663
 72
0
 73
0
 10
586645.7156945154
 20
8546824.762819238
 30
0.0
 11
586645.7156945154
 21
8546824.762819238
 31
0.0
 50
0.0
 210
0.0
 220
0.0
 230
1.0
 0
POLYLINE
 8
0
 70
9
 66
1
 10
0.0
 20
0.0
 30
0.0
 0
VERTEX
 8
0
 10
587346.859608144
 20
8546112.3704332169
 30
0.0
 70
32
 0
VERTEX
 8
0
 10
587332.711814945
 20
8546094.3881485108
 30
0.0
 70
32
 0
VERTEX
 8
0
 10
587323.1335619562
 20
8546081.8105647545
 30
0.0
 70
32
 0
VERTEX
 8
0
 10
587308.240193817
 20
8546067.9227996729
 30
0.0
 70
32
 0
VERTEX
 8
0
 10
587289.5554811788
 20
8546054.7107448541
 30
0.0
 70
32
 0
VERTEX
 8
0
 10
587257.9312284053
 20
8546028.4894284457
 30
0.0
 70
32
 0
VERTEX
 8
0
 10
587237.922967728
 20
8546008.0926700234
 30
0.0
 70
32
 0
VERTEX
 8
0
 10
587227.229477296
 20
8545985.6753545217
 30
0.0
 70
32
 0
VERTEX
 8
0
 10
587215.3052434936
 20
8545951.2067319471
 30
0.0
 70
32
 0
VERTEX
 8
0
 10
587208.0712654553
 20
8545926.0133912619
 30
0.0
 70
32
 0
VERTEX
 8
0
 10
587194.8232450368
 20
8545918.203231167
 30
0.0
 70
32
 0
VERTEX
 8
0
 10
587182.6527184461
 20
8545908.3988497071
 30
0.0
 70
32
 0
VERTEX
 8
0
 10
587149.6748385981
 20
8545899.4351115897
 30
0.0
 70
32
 0
VERTEX
 8
0
 10
587106.4685926094
 20
8545877.8957593925
 30
0.0
 70
32
 0
VERTEX
 8
0
 10
587016.164715121
 20
8545940.008406125
 30
0.0
 70
32
 0
VERTEX
 8
0
 10
586980.4732067064
 20
8545963.7902575489
 30
0.0
 70
32
 0
VERTEX
 8
0
 10
586944.1630399905
 20
8545997.5278880503
 30
0.0
 70
32
 0
VERTEX
 8
0
 10
586857.0051012256
 20
8546060.7359174304
 30
0.0
 70
32
 0
VERTEX
 8
0
 10
586759.5550794682
 20
8546125.5247366913
 30
0.0
 70
32
 0
VERTEX
 8
0
 10
586753.0341375853
 20
8546085.8406475857
 30
0.0
 70
32
 0
VERTEX
 8
0
 10
586720.6369368711
 20
8545884.4333636202
 30
0.0
 70
32
 0
VERTEX
 8
0
 10
586711.3433573503
 20
8545790.7860624455
 30
0.0
 70
32
 0
VERTEX
 8
0
 10
586534.40698811
 20
8545842.7759891246
 30
0.0
 70
32
 0
VERTEX
 8
0
 10
586534.3613835377
 20
8545862.5732369442
 30
0.0
 70
32
 0
VERTEX
 8
0
 10
586558.93340826
 20
8545886.8269401863
 30
0.0
 70
32
 0
VERTEX
 8
0
 10
586571.6750790306
 20
8545905.9200346954
 30
0.0
 70
32
 0
VERTEX
 8
0
 10
586588.2382994074
 20
8545933.8488665503
 30
0.0
 70
32
 0
VERTEX
 8
0
 10
586593.3127768849
 20
8545961.8141472153
 30
0.0
 70
32
 0
VERTEX
 8
0
 10
586581.8489527928
 20
8546003.8778911848
 30
0.0
 70
32
 0
VERTEX
 8
0
 10
586586.9072909326
 20
8546026.7556995619
 30
0.0
 70
32
 0
VERTEX
 8
0
 10
586608.6054027766
 20
8546067.4976383355
 30
0.0
 70
32
 0
VERTEX
 8
0
 10
586615.0008972214
 20
8546101.8734269235
 30
0.0
 70
32
 0
VERTEX
 8
0
 10
586634.0294899235
 20
8546155.2320322916
 30
0.0
 70
32
 0
VERTEX
 8
0
 10
586646.8331215741
 20
8546193.7902109101
 30
0.0
 70
32
 0
VERTEX
 8
0
 10
586640.5156966598
 20
8546252.3167865649
 30
0.0
 70
32
 0
VERTEX
 8
0
 10
586645.5741171589
 20
8546275.1945856437
 30
0.0
 70
32
 0
VERTEX
 8
0
 10
586660.8734996811
 20
8546314.6296233982
 30
0.0
 70
32
 0
VERTEX
 8
0
 10
586651.9063401702
 20
8546357.9020389616
 30
0.0
 70
32
 0
VERTEX
 8
0
 10
586665.965065004
 20
8546382.0784432143
 30
0.0
 70
32
 0
VERTEX
 8
0
 10
586684.9861930877
 20
8546433.003881
 30
0.0
 70
32
 0
VERTEX
 8
0
 10
586695.1550042877
 20
8546460.9529680107
 30
0.0
 70
32
 0
VERTEX
 8
0
 10
586713.0373724429
 20
8546528.6929531507
 30
0.0
 70
32
 0
VERTEX
 8
0
 10
586649.1492903718
 20
8546479.5689493995
 30
0.0
 70
32
 0
VERTEX
 8
0
 10
586649.1019007317
 20
8546464.6383263543
 30
0.0
 70
32
 0
VERTEX
 8
0
 10
586643.3534676125
 20
8546429.2651081178
 30
0.0
 70
32
 0
VERTEX
 8
0
 10
586639.9856861056
 20
8546392.6677514352
 30
0.0
 70
32
 0
VERTEX
 8
0
 10
586635.3464090019
 20
8546365.2540905382
 30
0.0
 70
32
 0
VERTEX
 8
0
 10
586628.5455923242
 20
8546271.4882907532
 30
0.0
 70
32
 0
VERTEX
 8
0
 10
586613.5949486201
 20
8546239.4622196387
 30
0.0
 70
32
 0
VERTEX
 8
0
 10
586610.1763269483
 20
8546186.8282611612
 30
0.0
 70
32
 0
VERTEX
 8
0
 10
586601.0897885682
 20
8546158.3227230944
 30
0.0
 70
32
 0
VERTEX
 8
0
 10
586599.90065867
 20
8546125.1469954364
 30
0.0
 70
32
 0
VERTEX
 8
0
 10
586585.0767489196
 20
8546098.8716237023
 30
0.0
 70
32
 0
VERTEX
 8
0
 10
586567.8459270147
 20
8546031.3507010043
 30
0.0
 70
32
 0
VERTEX
 8
0
 10
586555.2795796994
 20
8545965.0315572545
 30
0.0
 70
32
 0
VERTEX
 8
0
 10
586541.6080379764
 20
8545926.1443014089
 30
0.0
 70
32
 0
VERTEX
 8
0
 10
586515.2370132622
 20
8545847.2607078888
 30
0.0
 70
32
 0
VERTEX
 8
0
 10
586405.4356027927
 20
8545879.2397282515
 30
0.0
 70
32
 0
VERTEX
 8
0
 10
586649.1492903718
 20
8546479.5689493995
 30
0.0
 70
32
 0
VERTEX
 8
0
 10
586713.0373724429
 20
8546528.6929531507
 30
0.0
 70
32
 0
VERTEX
 8
0
 10
586748.100171226
 20
8546613.7422850449
 30
0.0
 70
32
 0
VERTEX
 8
0
 10
586779.2302862688
 20
8546689.0714259222
 30
0.0
 70
32
 0
VERTEX
 8
0
 10
586770.3553709493
 20
8546727.2560564317
 30
0.0
 70
32
 0
VERTEX
 8
0
 10
586771.5443356452
 20
8546760.3211790863
 30
0.0
 70
32
 0
VERTEX
 8
0
 10
586782.6236753212
 20
8546801.8709411658
 30
0.0
 70
32
 0
VERTEX
 8
0
 10
586829.8432942301
 20
8546926.2545569055
 30
0.0
 70
32
 0
VERTEX
 8
0
 10
586737.6181433235
 20
8546964.9252508655
 30
0.0
 70
32
 0
VERTEX
 8
0
 10
586571.284422036
 20
8546568.7370112929
 30
0.0
 70
32
 0
VERTEX
 8
0
 10
586495.2691935219
 20
8546386.6013748646
 30
0.0
 70
32
 0
VERTEX
 8
0
 10
586469.8270463832
 20
8546327.2906979509
 30
0.0
 70
32
 0
VERTEX
 8
0
 10
586424.8263527913
 20
8546218.2727078144
 30
0.0
 70
32
 0
VERTEX
 8
0
 10
586364.3208533443
 20
8546073.1380867977
 30
0.0
 70
32
 0
VERTEX
 8
0
 10
586329.2721106435
 20
8545991.9592411872
 30
0.0
 70
32
 0
VERTEX
 8
0
 10
586214.1176456645
 20
8545942.2222641073
 30
0.0
 70
32
 0
VERTEX
 8
0
 10
586114.0005357009
 20
8545986.44587202
 30
0.0
 70
32
 0
VERTEX
 8
0
 10
585993.5350021637
 20
8546039.6916699521
 30
0.0
 70
32
 0
VERTEX
 8
0
 10
585913.8741292807
 20
8546075.0021813456
 30
0.0
 70
32
 0
VERTEX
 8
0
 10
585937.7775945963
 20
8546128.0140475016
 30
0.0
 70
32
 0
VERTEX
 8
0
 10
585973.2567426012
 20
8546208.5283824708
 30
0.0
 70
32
 0
VERTEX
 8
0
 10
585814.6896619143
 20
8546278.2618115116
 30
0.0
 70
32
 0
VERTEX
 8
0
 10
585818.7677392204
 20
8546299.8156256247
 30
0.0
 70
32
 0
VERTEX
 8
0
 10
585818.7913836403
 20
8546307.3362240419
 30
0.0
 70
32
 0
VERTEX
 8
0
 10
585818.1605400763
 20
8546313.5317025445
 30
0.0
 70
32
 0
VERTEX
 8
0
 10
585818.2908314904
 20
8546320.4989749566
 30
0.0
 70
32
 0
VERTEX
 8
0
 10
585821.7883892962
 20
8546329.7782214992
 30
0.0
 70
32
 0
VERTEX
 8
0
 10
585829.6885038263
 20
8546360.3890638538
 30
0.0
 70
32
 0
VERTEX
 8
0
 10
585831.8819589341
 20
8546368.5664284583
 30
0.0
 70
32
 0
VERTEX
 8
0
 10
585832.5590524146
 20
8546377.0803552307
 30
0.0
 70
32
 0
VERTEX
 8
0
 10
585829.9012115193
 20
8546393.5678327736
 30
0.0
 70
32
 0
VERTEX
 8
0
 10
585833.3244738847
 20
8546413.6859279294
 30
0.0
 70
32
 0
VERTEX
 8
0
 10
585836.3985863491
 20
8546426.1738500167
 30
0.0
 70
32
 0
VERTEX
 8
0
 10
585840.6701681095
 20
8546440.3169783093
 30
0.0
 70
32
 0
VERTEX
 8
0
 10
585840.0956616909
 20
8546464.4291754812
 30
0.0
 70
32
 0
VERTEX
 8
0
 10
585845.1106538397
 20
8546473.7036482748
 30
0.0
 70
32
 0
VERTEX
 8
0
 10
585848.6030204187
 20
8546481.3239366226
 30
0.0
 70
32
 0
VERTEX
 8
0
 10
585860.367901332
 20
8546500.0886188075
 30
0.0
 70
32
 0
VERTEX
 8
0
 10
585873.0828831459
 20
8546510.7766450047
 30
0.0
 70
32
 0
VERTEX
 8
0
 10
585881.474930536
 20
8546525.4597976506
 30
0.0
 70
32
 0
VERTEX
 8
0
 10
585880.8667067797
 20
8546538.844084233
 30
0.0
 70
32
 0
VERTEX
 8
0
 10
585877.1295265987
 20
8546556.7727361228
 30
0.0
 70
32
 0
VERTEX
 8
0
 10
585878.7140854303
 20
8546578.113189524
 30
0.0
 70
32
 0
VERTEX
 8
0
 10
585879.1852050677
 20
8546590.0563047398
 30
0.0
 70
32
 0
VERTEX
 8
0
 10
585880.3609171951
 20
8546619.2505102586
 30
0.0
 70
32
 0
VERTEX
 8
0
 10
585883.1133859889
 20
8546632.8454209045
 30
0.0
 70
32
 0
VERTEX
 8
0
 10
585888.1294642106
 20
8546642.4516784158
 30
0.0
 70
32
 0
VERTEX
 8
0
 10
585897.5887272923
 20
8546651.8227607459
 30
0.0
 70
32
 0
VERTEX
 8
0
 10
585902.0447833692
 20
8546655.6796756256
 30
0.0
 70
32
 0
VERTEX
 8
0
 10
585905.6612324271
 20
8546668.2764831819
 30
0.0
 70
32
 0
VERTEX
 8
0
 10
585910.4709895271
 20
8546681.2013300359
 30
0.0
 70
32
 0
VERTEX
 8
0
 10
585919.3043104092
 20
8546698.3162439726
 30
0.0
 70
32
 0
VERTEX
 8
0
 10
585927.2604483034
 20
8546712.2265704572
 30
0.0
 70
32
 0
VERTEX
 8
0
 10
585931.283316178
 20
8546716.1954426244
 30
0.0
 70
32
 0
VERTEX
 8
0
 10
585939.9825136166
 20
8546725.1265117638
 30
0.0
 70
32
 0
VERTEX
 8
0
 10
585958.3776523974
 20
8546749.7319906335
 30
0.0
 70
32
 0
VERTEX
 8
0
 10
585966.9921590159
 20
8546766.1839915663
 30
0.0
 70
32
 0
VERTEX
 8
0
 10
585966.4435045379
 20
8546798.4803722184
 30
0.0
 70
32
 0
VERTEX
 8
0
 10
585972.7790977015
 20
8546814.0547614004
 30
0.0
 70
32
 0
VERTEX
 8
0
 10
585986.4118663375
 20
8546840.7765831575
 30
0.0
 70
32
 0
VERTEX
 8
0
 10
585995.2438883289
 20
8546857.4490882419
 30
0.0
 70
32
 0
VERTEX
 8
0
 10
586003.6360982296
 20
8546872.1322097667
 30
0.0
 70
32
 0
VERTEX
 8
0
 10
586012.8096771956
 20
8546894.0017465018
 30
0.0
 70
32
 0
VERTEX
 8
0
 10
586025.3258882681
 20
8546910.3308445383
 30
0.0
 70
32
 0
VERTEX
 8
0
 10
586037.7417398662
 20
8546929.2040108386
 30
0.0
 70
32
 0
VERTEX
 8
0
 10
586048.5335235846
 20
8546948.6352803335
 30
0.0
 70
32
 0
VERTEX
 8
0
 10
586059.9714710092
 20
8546966.7373323515
 30
0.0
 70
32
 0
VERTEX
 8
0
 10
586072.4884392696
 20
8546983.2876055967
 30
0.0
 70
32
 0
VERTEX
 8
0
 10
586092.3005852124
 20
8547010.3217008673
 30
0.0
 70
32
 0
VERTEX
 8
0
 10
586116.4434405542
 20
8547035.7937543336
 30
0.0
 70
32
 0
VERTEX
 8
0
 10
586148.2795130796
 20
8547060.4673359133
 30
0.0
 70
32
 0
VERTEX
 8
0
 10
586185.5288138262
 20
8547083.133035019
 30
0.0
 70
32
 0
VERTEX
 8
0
 10
586211.705730114
 20
8547100.5249276254
 30
0.0
 70
32
 0
VERTEX
 8
0
 10
586249.8386698475
 20
8547128.3858698104
 30
0.0
 70
32
 0
VERTEX
 8
0
 10
586285.8094921699
 20
8547158.0231643617
 30
0.0
 70
32
 0
VERTEX
 8
0
 10
586304.5954475369
 20
8547168.9130304679
 30
0.0
 70
32
 0
VERTEX
 8
0
 10
586328.996695963
 20
8547173.1492457651
 30
0.0
 70
32
 0
VERTEX
 8
0
 10
586356.697532056
 20
8547158.2415200062
 30
0.0
 70
32
 0
VERTEX
 8
0
 10
586380.1882948488
 20
8547148.7663912605
 30
0.0
 70
32
 0
VERTEX
 8
0
 10
586396.880253022
 20
8547148.7135959305
 30
0.0
 70
32
 0
VERTEX
 8
0
 10
586396.6935607152
 20
8547158.2256321572
 30
0.0
 70
32
 0
VERTEX
 8
0
 10
586385.7092020228
 20
8547180.8224087562
 30
0.0
 70
32
 0
VERTEX
 8
0
 10
586400.9309571706
 20
8547195.7050195169
 30
0.0
 70
32
 0
VERTEX
 8
0
 10
586429.9814513336
 20
8547196.2766988333
 30
0.0
 70
32
 0
VERTEX
 8
0
 10
586449.9345777985
 20
8547199.1997050792
 30
0.0
 70
32
 0
VERTEX
 8
0
 10
586485.9633343446
 20
8547212.7998280898
 30
0.0
 70
32
 0
VERTEX
 8
0
 10
586496.3174350781
 20
8547230.7945521772
 30
0.0
 70
32
 0
VERTEX
 8
0
 10
586500.054169626
 20
8547247.0406578928
 30
0.0
 70
32
 0
VERTEX
 8
0
 10
586504.0381592084
 20
8547272.9080255814
 30
0.0
 70
32
 0
VERTEX
 8
0
 10
586507.5250372624
 20
8547312.9335393216
 30
0.0
 70
32
 0
VERTEX
 8
0
 10
586508.161554651
 20
8547342.7930428255
 30
0.0
 70
32
 0
VERTEX
 8
0
 10
586502.4848201077
 20
8547364.2670736145
 30
0.0
 70
32
 0
VERTEX
 8
0
 10
586492.2567333663
 20
8547386.0873077679
 30
0.0
 70
32
 0
VERTEX
 8
0
 10
586476.1927032892
 20
8547413.3453233652
 30
0.0
 70
32
 0
VERTEX
 8
0
 10
586458.2611498126
 20
8547432.7567653414
 30
0.0
 70
32
 0
VERTEX
 8
0
 10
586428.9566101972
 20
8547454.7479353473
 30
0.0
 70
32
 0
VERTEX
 8
0
 10
586416.0102655606
 20
8547473.9223769307
 30
0.0
 70
32
 0
VERTEX
 8
0
 10
586409.449859081
 20
8547490.2010608669
 30
0.0
 70
32
 0
VERTEX
 8
0
 10
586401.7915456446
 20
8547502.0592876486
 30
0.0
 70
32
 0
VERTEX
 8
0
 10
586391.7332397837
 20
8547509.0587814171
 30
0.0
 70
32
 0
VERTEX
 8
0
 10
586380.0424229679
 20
8547513.9620675351
 30
0.0
 70
32
 0
VERTEX
 8
0
 10
586364.1498830027
 20
8547526.9522974584
 30
0.0
 70
32
 0
VERTEX
 8
0
 10
586337.9580973861
 20
8547539.3114776127
 30
0.0
 70
32
 0
VERTEX
 8
0
 10
586317.0550814305
 20
8547544.5756403878
 30
0.0
 70
32
 0
VERTEX
 8
0
 10
586297.3607773163
 20
8547555.0340817831
 30
0.0
 70
32
 0
VERTEX
 8
0
 10
586285.5128721378
 20
8547578.8501040805
 30
0.0
 70
32
 0
VERTEX
 8
0
 10
586263.7468798555
 20
8547585.4441265315
 30
0.0
 70
32
 0
VERTEX
 8
0
 10
586265.6691452158
 20
8547610.6544326451
 30
0.0
 70
32
 0
VERTEX
 8
0
 10
586281.1413660351
 20
8547636.1537468694
 30
0.0
 70
32
 0
VERTEX
 8
0
 10
586291.3989539937
 20
8547657.9091863018
 30
0.0
 70
32
 0
VERTEX
 8
0
 10
586297.848186475
 20
8547675.0315292701
 30
0.0
 70
32
 0
VERTEX
 8
0
 10
586309.2159169746
 20
8547705.0783174355
 30
0.0
 70
32
 0
VERTEX
 8
0
 10
586311.8669225678
 20
8547720.7748793662
 30
0.0
 70
32
 0
VERTEX
 8
0
 10
586315.49659983
 20
8547737.463732779
 30
0.0
 70
32
 0
VERTEX
 8
0
 10
586314.6157514048
 20
8547767.4386107344
 30
0.0
 70
32
 0
VERTEX
 8
0
 10
586308.5086831981
 20
8547790.0199206397
 30
0.0
 70
32
 0
VERTEX
 8
0
 10
586372.2986872678
 20
8547807.4034681562
 30
0.0
 70
32
 0
VERTEX
 8
0
 10
586428.1660183979
 20
8547821.6045842692
 30
0.0
 70
32
 0
VERTEX
 8
0
 10
586460.3759453124
 20
8547827.0325984377
 30
0.0
 70
32
 0
VERTEX
 8
0
 10
586511.4758703582
 20
8547841.8016238715
 30
0.0
 70
32
 0
VERTEX
 8
0
 10
586556.4957344489
 20
8547853.382468598
 30
0.0
 70
32
 0
VERTEX
 8
0
 10
586576.1318874904
 20
8547858.7395760305
 30
0.0
 70
32
 0
VERTEX
 8
0
 10
586647.7556407367
 20
8547851.102484649
 30
0.0
 70
32
 0
VERTEX
 8
0
 10
586693.3719113274
 20
8547845.6490906961
 30
0.0
 70
32
 0
VERTEX
 8
0
 10
586740.0534837637
 20
8547834.330531396
 30
0.0
 70
32
 0
VERTEX
 8
0
 10
586794.0050215705
 20
8547825.4219612759
 30
0.0
 70
32
 0
VERTEX
 8
0
 10
586816.8725966031
 20
8547824.3539346773
 30
0.0
 70
32
 0
VERTEX
 8
0
 10
586859.1223227206
 20
8547816.920185918
 30
0.0
 70
32
 0
VERTEX
 8
0
 10
586905.6010795831
 20
8547810.0259123277
 30
0.0
 70
32
 0
VERTEX
 8
0
 10
586962.8285829444
 20
8547808.7378659733
 30
0.0
 70
32
 0
VERTEX
 8
0
 10
587001.5048418602
 20
8547802.4212483615
 30
0.0
 70
32
 0
VERTEX
 8
0
 10
587035.1894152561
 20
8547794.3509014398
 30
0.0
 70
32
 0
VERTEX
 8
0
 10
587063.7855364706
 20
8547788.1768964715
 30
0.0
 70
32
 0
VERTEX
 8
0
 10
587129.2197691244
 20
8547777.1296951324
 30
0.0
 70
32
 0
VERTEX
 8
0
 10
587156.9187359327
 20
8547761.5575913396
 30
0.0
 70
32
 0
VERTEX
 8
0
 10
587151.6405298638
 20
8547703.9526866861
 30
0.0
 70
32
 0
VERTEX
 8
0
 10
587148.4842148812
 20
8547665.9169208109
 30
0.0
 70
32
 0
VERTEX
 8
0
 10
587143.6886295936
 20
8547623.6836450472
 30
0.0
 70
32
 0
VERTEX
 8
0
 10
587129.3440456914
 20
8547578.1628713999
 30
0.0
 70
32
 0
VERTEX
 8
0
 10
587125.8689403416
 20
8547542.118889451
 30
0.0
 70
32
 0
VERTEX
 8
0
 10
587125.8560020673
 20
8547504.0730952453
 30
0.0
 70
32
 0
VERTEX
 8
0
 10
587128.7075307008
 20
8547446.5528523177
 30
0.0
 70
32
 0
VERTEX
 8
0
 10
587132.7657038587
 20
8547427.5169899333
 30
0.0
 70
32
 0
VERTEX
 8
0
 10
587159.3867473949
 20
8547413.9390665162
 30
0.0
 70
32
 0
VERTEX
 8
0
 10
587188.5441647379
 20
8547413.9566215333
 30
0.0
 70
32
 0
VERTEX
 8
0
 10
587236.52976006
 20
8547403.9601711668
 30
0.0
 70
32
 0
VERTEX
 8
0
 10
587285.9028456921
 20
8547387.2126980126
 30
0.0
 70
32
 0
VERTEX
 8
0
 10
587328.4635417803
 20
8547375.5744379461
 30
0.0
 70
32
 0
VERTEX
 8
0
 10
587373.5302736308
 20
8547368.0202358682
 30
0.0
 70
32
 0
VERTEX
 8
0
 10
587405.6932172163
 20
8547358.8482722007
 30
0.0
 70
32
 0
VERTEX
 8
0
 10
587424.421751537
 20
8547351.5994414464
 30
0.0
 70
32
 0
VERTEX
 8
0
 10
587464.1797776473
 20
8547344.8362642825
 30
0.0
 70
32
 0
VERTEX
 8
0
 10
587476.7417271165
 20
8547341.2568891533
 30
0.0
 70
32
 0
VERTEX
 8
0
 10
587442.232110171
 20
8547125.2579848692
 30
0.0
 70
32
 0
VERTEX
 8
0
 10
587426.9378634665
 20
8547121.7677949332
 30
0.0
 70
32
 0
VERTEX
 8
0
 10
587396.7456851351
 20
8547137.0164120086
 30
0.0
 70
32
 0
VERTEX
 8
0
 10
587356.9237810525
 20
8547157.6045199167
 30
0.0
 70
32
 0
VERTEX
 8
0
 10
587334.5789029965
 20
8547152.4778508432
 30
0.0
 70
32
 0
VERTEX
 8
0
 10
587316.395462752
 20
8547126.7665513549
 30
0.0
 70
32
 0
VERTEX
 8
0
 10
587311.4581859073
 20
8547108.0911991559
 30
0.0
 70
32
 0
VERTEX
 8
0
 10
587320.6898597289
 20
8547079.9696816355
 30
0.0
 70
32
 0
VERTEX
 8
0
 10
587311.1457897521
 20
8547044.2768976297
 30
0.0
 70
32
 0
VERTEX
 8
0
 10
587303.0397896821
 20
8547017.6485862341
 30
0.0
 70
32
 0
VERTEX
 8
0
 10
587300.8775174784
 20
8546985.4713511281
 30
0.0
 70
32
 0
VERTEX
 8
0
 10
587320.6034155514
 20
8546951.2333649248
 30
0.0
 70
32
 0
VERTEX
 8
0
 10
587345.1864433568
 20
8546944.5188422892
 30
0.0
 70
32
 0
VERTEX
 8
0
 10
587370.7569894787
 20
8546941.5614851955
 30
0.0
 70
32
 0
VERTEX
 8
0
 10
587386.6798720827
 20
8546938.3031820469
 30
0.0
 70
32
 0
VERTEX
 8
0
 10
587396.7550694125
 20
8546936.7225615382
 30
0.0
 70
32
 0
VERTEX
 8
0
 10
587349.721393574
 20
8546769.6481602788
 30
0.0
 70
32
 0
VERTEX
 8
0
 10
587043.808500581
 20
8546485.5023559518
 30
0.0
 70
32
 0
VERTEX
 8
0
 10
586856.4896687372
 20
8546409.6754857618
 30
0.0
 70
32
 0
VERTEX
 8
0
 10
586824.0815205646
 20
8546307.3644854985
 30
0.0
 70
32
 0
VERTEX
 8
0
 10
586875.4877321487
 20
8546180.7869585864
 30
0.0
 70
32
 0
VERTEX
 8
0
 10
587123.3631823786
 20
8546281.0838522781
 30
0.0
 70
32
 0
VERTEX
 8
0
 10
587043.9168874398
 20
8546485.5020103697
 30
0.0
 70
32
 0
VERTEX
 8
0
 10
587349.7210397762
 20
8546769.5375629365
 30
0.0
 70
32
 0
SEQEND
 0
ENDSEC
 0
EOF
